<svg width="26" height="26" viewBox="0 0 26 26" fill="none" xmlns="http://www.w3.org/2000/svg">
    <g clip-path="url(#clip0)">
        <path
            d="M17.8984 12.5123C17.8638 12.0014 17.9454 11.4892 18.137 11.0143C18.3286 10.5394 18.6252 10.114 19.0047 9.77005C19.0481 9.72977 19.0832 9.68133 19.1079 9.6275C19.1325 9.57367 19.1464 9.5155 19.1486 9.45632C19.1508 9.39714 19.1413 9.33811 19.1207 9.28259C19.1001 9.22707 19.0688 9.17615 19.0285 9.13274C18.9882 9.08933 18.9398 9.05428 18.886 9.02959C18.8321 9.0049 18.774 8.99106 18.7148 8.98885C18.6556 8.98664 18.5966 8.99611 18.541 9.01671C18.4855 9.03732 18.4346 9.06866 18.3912 9.10894C17.9171 9.54234 17.5459 10.0761 17.3044 10.6714C17.063 11.2666 16.9576 11.9082 16.9958 12.5494C17.0787 13.6242 17.4798 14.6501 18.1479 15.4962C18.3259 15.7548 18.4725 16.0336 18.5848 16.3268C16.9419 17.4577 14.9944 18.0632 12.9998 18.0632C11.0053 18.0631 9.05776 17.4575 7.41487 16.3266C7.52721 16.0335 7.67386 15.7547 7.85175 15.4961C8.5204 14.6504 8.92154 13.6244 9.00385 12.5494C9.04228 11.9082 8.93698 11.2666 8.69564 10.6713C8.45429 10.0761 8.083 9.54228 7.6089 9.10893C7.52123 9.02758 7.40484 8.98438 7.28532 8.98884C7.1658 8.9933 7.05295 9.04506 6.97159 9.13273C6.89023 9.2204 6.84704 9.3368 6.8515 9.45632C6.85596 9.57583 6.90772 9.68869 6.99539 9.77004C7.37485 10.114 7.67153 10.5394 7.86319 11.0143C8.05485 11.4892 8.13652 12.0014 8.10209 12.5123C8.02434 13.4103 7.68234 14.2652 7.11923 14.969C4.94461 17.9899 6.56831 24.6133 6.63882 24.8936C6.66307 24.9913 6.71929 25.078 6.79853 25.1399C6.87776 25.2019 6.97545 25.2356 7.07604 25.2356C7.11316 25.2356 7.15014 25.2311 7.18622 25.2224C7.30227 25.1933 7.402 25.1192 7.46349 25.0166C7.52498 24.9139 7.5432 24.7911 7.51413 24.675C7.50114 24.6216 6.44247 20.3024 7.12022 17.2647C8.60189 18.5367 11.6461 21.4693 11.6461 23.0029C11.6461 23.0621 11.6577 23.1208 11.6804 23.1756C11.703 23.2304 11.7363 23.2801 11.7782 23.3221C11.8201 23.364 11.8699 23.3972 11.9247 23.4199C11.9794 23.4426 12.0381 23.4542 12.0974 23.4542H13.9027C13.962 23.4542 14.0207 23.4426 14.0754 23.4199C14.1302 23.3972 14.18 23.364 14.2219 23.3221C14.2638 23.2801 14.2971 23.2304 14.3197 23.1756C14.3424 23.1208 14.354 23.0621 14.354 23.0029C14.354 21.4702 17.3977 18.5377 18.8793 17.2649C19.5562 20.3018 18.4992 24.6216 18.4855 24.675C18.4568 24.7912 18.4753 24.914 18.5369 25.0166C18.5985 25.1192 18.6983 25.1932 18.8143 25.2224C18.8501 25.2311 18.8868 25.2356 18.9236 25.2357C19.0243 25.2356 19.1221 25.2019 19.2014 25.1399C19.2808 25.078 19.3372 24.9913 19.3617 24.8936C19.4313 24.6133 21.056 17.9899 18.8813 14.969C18.3176 14.2655 17.9756 13.4105 17.8984 12.5123ZM13.5021 22.5515H12.498C12.2243 21.261 10.884 19.6497 9.64292 18.3857C11.8167 19.1437 14.183 19.1437 16.3567 18.3857C15.1156 19.6497 13.7758 21.261 13.5021 22.5515Z"
            stroke="#041B5A"
            stroke-width="0.3"
        />
        <path
            d="M13.0002 16.6844C13.4987 16.6844 13.9029 16.2803 13.9029 15.7818C13.9029 15.2833 13.4987 14.8792 13.0002 14.8792C12.5017 14.8792 12.0976 15.2833 12.0976 15.7818C12.0976 16.2803 12.5017 16.6844 13.0002 16.6844Z"
            stroke="#041B5A"
            stroke-width="0.3"
        />
        <path
            d="M8.75963 9.01183C9.39688 8.9909 10.0195 8.81571 10.5742 8.50128C11.1289 8.18685 11.599 7.74258 11.9443 7.20655H14.0561C14.4011 7.74258 14.8711 8.18688 15.4256 8.50131C15.9802 8.81575 16.6027 8.99093 17.2399 9.01183C18.0536 8.98663 18.8242 8.64003 19.383 8.04792C19.9417 7.45581 20.2431 6.66642 20.2211 5.8526C20.2211 4.24477 17.3166 0.581339 16.9851 0.168806C16.9311 0.101433 16.8589 0.0509928 16.777 0.0234845C16.6951 -0.00402382 16.6071 -0.00744302 16.5234 0.0136334C16.4396 0.0347099 16.3637 0.0793954 16.3046 0.142376C16.2455 0.205356 16.2057 0.283982 16.19 0.368903C15.9714 1.53511 15.2248 4.73488 14.3989 5.52646C14.1713 5.73412 14.0105 6.00472 13.9369 6.30392H12.0634C11.9899 6.00506 11.8293 5.73476 11.602 5.52733V5.52643C10.7761 4.73572 10.0285 1.53508 9.81035 0.368876C9.79441 0.283941 9.75447 0.205351 9.69527 0.142399C9.63606 0.0794465 9.56007 0.0347664 9.47627 0.0136429C9.39255 -0.00655786 9.30482 -0.0027141 9.22319 0.024732C9.14156 0.0521782 9.06933 0.102112 9.01482 0.168788C8.68338 0.581339 5.7789 4.24477 5.7789 5.8526C5.75689 6.66635 6.05819 7.45567 6.61684 8.04777C7.17549 8.63988 7.94598 8.98652 8.75963 9.01183ZM15.023 6.17875C15.8992 5.3387 16.5577 2.89611 16.875 1.50072C17.9945 2.99575 19.3185 5.03105 19.3185 5.8526C19.3405 6.42705 19.1342 6.98685 18.7447 7.40969C18.3552 7.83252 17.8142 8.08401 17.2399 8.10919C16.7658 8.09003 16.3027 7.96054 15.8874 7.73101C15.4721 7.50147 15.1161 7.17823 14.8476 6.78697C14.8016 6.681 14.794 6.56233 14.826 6.45134C14.858 6.34035 14.9277 6.24397 15.023 6.17875H15.023ZM9.12497 1.50072C9.4423 2.89611 10.1008 5.33873 10.977 6.17786C11.0723 6.24327 11.142 6.33978 11.1741 6.45088C11.2062 6.56199 11.1987 6.68079 11.1528 6.78696C10.8842 7.17824 10.528 7.50148 10.1125 7.73101C9.69711 7.96053 9.23387 8.09002 8.75963 8.10919C8.18536 8.08399 7.64441 7.83248 7.25501 7.40964C6.86562 6.98679 6.65944 6.427 6.68153 5.8526C6.68153 5.03194 8.00596 2.99575 9.12497 1.50072Z"
            stroke="#041B5A"
            stroke-width="0.3"
        />
    </g>
    <defs>
        <clipPath id="clip0">
            <rect width="26" height="26" fill="white" />
        </clipPath>
    </defs>
</svg>
