<svg width="24" height="24" viewBox="0 0 24 24" fill="none" xmlns="http://www.w3.org/2000/svg">
    <path d="M18.4805 9.6013L18.4585 9.56837C15.9309 6.50546 15.2914 2.79768 15.1294 1C9.31395 5.68214 8.49059 11.7395 8.49059 11.8022C8.46972 11.987 8.35696 12.1486 8.19079 12.2316C8.02442 12.3147 7.82762 12.308 7.66736 12.214C6.25392 11.4044 5.63635 9.69463 5.37557 8.5829C4.18076 9.82539 3.39146 11.4015 3.1123 13.1023C2.83318 14.8033 3.07727 16.5491 3.81221 18.1082C4.54715 19.6673 5.73834 20.9664 7.22814 21.8337C6.49971 20.7635 6.19742 19.46 6.38003 18.1787C6.56286 16.8972 7.2176 15.7301 8.21617 14.9063C8.37431 14.7786 8.59007 14.7487 8.7769 14.8287C8.96374 14.9086 9.09125 15.0853 9.10809 15.2878C9.1437 15.6523 9.23636 16.0088 9.38263 16.3446C10.0707 14.1891 11.4452 12.3183 13.2963 11.0172C13.464 10.8978 13.6845 10.8823 13.8676 10.9772C14.0504 11.0722 14.1647 11.2613 14.1635 11.4673C14.1635 11.492 14.1635 14.0143 15.7225 15.886C15.7391 15.9031 15.7531 15.9224 15.7636 15.9438C16.3998 16.7971 16.727 17.8412 16.6912 18.9051C16.6927 19.95 16.378 20.971 15.7883 21.8336C17.0773 21.0877 18.1469 20.0155 18.8893 18.7246C19.6319 17.4338 20.021 15.9701 20.0177 14.4808C20.0177 12.502 19.5427 10.9981 18.4806 9.6011L18.4805 9.6013Z" fill="#162A41"/>
    <path opacity="0.4" d="M14.8493 16.5504C13.9388 15.3889 13.3542 14.0057 13.156 12.5433C11.6501 13.8466 10.6201 15.6135 10.2275 17.5658C10.2055 17.7488 10.0931 17.9087 9.92825 17.9912C9.76705 18.0771 9.57369 18.0771 9.41232 17.9912C8.85386 17.6345 8.44188 17.0891 8.25138 16.4543C7.48673 17.4664 7.23595 18.7763 7.5725 19.9994C7.90906 21.2224 8.7947 22.2196 9.96956 22.698C10.1664 22.7782 10.3693 22.8433 10.5761 22.8929C11.1881 23.0357 11.8248 23.0357 12.4369 22.8929C12.6456 22.8439 12.8502 22.7788 13.0487 22.698C13.8021 22.3938 14.447 21.871 14.9004 21.1969C15.3539 20.5228 15.5951 19.7285 15.593 18.916C15.6283 18.0764 15.37 17.2507 14.863 16.5804C14.855 16.5724 14.8502 16.5617 14.8493 16.5504L14.8493 16.5504Z" fill="#162A41"/>
</svg>
