<svg width="40" height="40" viewBox="0 0 40 40" fill="none" xmlns="http://www.w3.org/2000/svg">
    <rect x="5" y="5" width="30" height="30" rx="3" fill="white" />
    <path
      fillRule="evenodd"
      clipRule="evenodd"
      d="M5 7.42246C5 6.08483 6.08525 5 7.42246 5H32.5775C33.9152 5 35 6.08525 35 7.42246V32.5775C35 33.9152 33.9147 35 32.5775 35H7.42246C6.08483 35 5 33.9147 5 32.5775V7.42246ZM5.96783 7.42246V32.5775C5.96783 33.3803 6.61947 34.0321 7.4224 34.0321H32.5775C33.3802 34.0321 34.0321 33.3805 34.0321 32.5775V7.42246C34.0321 6.61974 33.3804 5.96788 32.5775 5.96788H7.4224C6.61968 5.96788 5.96783 6.61952 5.96783 7.42246ZM9.8388 11.7743C9.57157 11.7743 9.35477 11.5575 9.35477 11.2903C9.35477 11.023 9.57157 10.8064 9.8388 10.8064H18.5485C18.8157 10.8064 19.0323 11.023 19.0323 11.2903C19.0323 11.5575 18.8157 11.7743 18.5485 11.7743H9.8388ZM9.8388 17.0967C9.57157 17.0967 9.35477 16.8802 9.35477 16.6129C9.35477 16.3457 9.57157 16.1291 9.8388 16.1291H18.5485C18.8157 16.1291 19.0323 16.3457 19.0323 16.6129C19.0323 16.8802 18.8157 17.0967 18.5485 17.0967H9.8388ZM21.4515 23.8709C21.1843 23.8709 20.9677 23.6543 20.9677 23.3871C20.9677 23.1198 21.1843 22.9032 21.4515 22.9032H30.1612C30.4284 22.9032 30.6452 23.1198 30.6452 23.3871C30.6452 23.6543 30.4284 23.8709 30.1612 23.8709H21.4515ZM21.4515 29.1935C21.1843 29.1935 20.9677 28.9769 20.9677 28.7097C20.9677 28.4424 21.1843 28.2256 21.4515 28.2256H30.1612C30.4284 28.2256 30.6452 28.4424 30.6452 28.7097C30.6452 28.9769 30.4284 29.1935 30.1612 29.1935H21.4515ZM17.0965 21.4513V30.161C17.0965 30.8061 16.1289 30.8061 16.1289 30.161V21.4513C16.1289 20.8061 17.0965 20.8061 17.0965 21.4513ZM11.7741 21.4513V30.161C11.7741 30.8061 10.8063 30.8061 10.8063 30.161V21.4513C10.8063 20.8061 11.7741 20.8061 11.7741 21.4513ZM29.1934 9.83859V18.5483C29.1934 19.1934 28.2256 19.1934 28.2256 18.5483V9.83859C28.2256 9.19343 29.1934 9.19343 29.1934 9.83859ZM23.8708 9.83859V18.5483C23.8708 19.1934 22.9032 19.1934 22.9032 18.5483V9.83859C22.9032 9.19343 23.8708 9.19343 23.8708 9.83859Z"
      fill="#5A657B"
    />
    <circle cx="33" cy="7" r="7" fill="red" />
    <path
      fillRule="evenodd"
      clipRule="evenodd"
      d="M35.8613 3.71818C36.1408 3.42727 36.5939 3.42727 36.8734 3.71818C37.1529 4.00909 37.1529 4.48074 36.8734 4.77165L32.1446 9.69848C32.0049 9.84394 31.8217 9.91667 31.6386 9.91667C31.4554 9.91667 31.2723 9.84394 31.1325 9.69848L29.1259 7.6235C28.8465 7.33259 28.8465 6.86094 29.1259 6.57003C29.4054 6.27912 29.8585 6.27912 30.138 6.57003L31.6386 8.11828L35.8613 3.71818Z"
      fill="white"
    />
  </svg>
