<svg width="24" height="24" viewBox="0 0 24 24" fill="none" xmlns="http://www.w3.org/2000/svg">
    <path d="M6.31998 6.31998C5.89334 6.74661 5.89334 7.43833 6.31998 7.86496L10.955 12.5L6.32015 17.1349C5.89352 17.5615 5.89352 18.2532 6.32015 18.6798C6.74679 19.1065 7.4385 19.1065 7.86514 18.6799L12.5 14.045L17.1349 18.6799C17.5615 19.1065 18.2532 19.1065 18.6798 18.6799C19.1065 18.2532 19.1065 17.5615 18.6798 17.1349L14.045 12.5L18.68 7.86496C19.1067 7.43833 19.1067 6.74661 18.68 6.31998C18.2534 5.89334 17.5617 5.89334 17.135 6.31998L12.5 10.955L7.86496 6.31998C7.43833 5.89334 6.74661 5.89334 6.31998 6.31998Z" fill="#162A41"/>
</svg>
