<svg width="24" height="24" viewBox="0 0 24 24" fill="none" xmlns="http://www.w3.org/2000/svg">
    <g clip-path="url(#clip0_5636_40006)">
        <path d="M5.40345 11.8037L12.1966 18.5969C12.4981 18.8984 12.6575 19.3173 12.6398 19.7614C12.6221 20.2055 12.4287 20.6384 12.1021 20.965C11.7756 21.2915 11.3426 21.4849 10.8985 21.5027C10.4544 21.5204 10.0356 21.361 9.73408 21.0595L9.21129 20.5367C9.1147 20.8154 8.94957 21.0701 8.73187 21.2762C8.51417 21.4822 8.25128 21.6327 7.96865 21.7129C7.68602 21.7932 7.39322 21.8006 7.1186 21.7343C6.84398 21.6681 6.59684 21.5304 6.40111 21.3348L2.66561 17.5993C2.46994 17.4035 2.33232 17.1564 2.26606 16.8818C2.19981 16.6071 2.20717 16.3144 2.28744 16.0317C2.3677 15.7491 2.51815 15.4862 2.72421 15.2685C2.93028 15.0508 3.18498 14.8857 3.46367 14.7891L2.94088 14.2663C2.6394 13.9648 2.47998 13.5459 2.49771 13.1018C2.51543 12.6578 2.70885 12.2248 3.03541 11.8982C3.36196 11.5717 3.79491 11.3783 4.239 11.3605C4.6831 11.3428 5.10196 11.5022 5.40345 11.8037Z" fill="#162A41"/>
        <path d="M17.5989 2.66559L21.3344 6.40109C21.5301 6.59682 21.6746 6.83712 21.7538 7.09871C21.8331 7.36031 21.8445 7.63435 21.7869 7.8943C21.7293 8.15424 21.6047 8.3913 21.4251 8.58251C21.2456 8.77373 21.0171 8.91263 20.7619 8.98576L21.2847 9.50855C21.5861 9.81004 21.7618 10.2127 21.7729 10.6279C21.784 11.0431 21.6298 11.4369 21.344 11.7227C21.0583 12.0084 20.6645 12.1627 20.2493 12.1515C19.834 12.1404 19.4314 11.9648 19.1299 11.6633L12.3367 4.8701C12.0352 4.56861 11.8596 4.16596 11.8485 3.75073C11.8373 3.3355 11.9916 2.9417 12.2773 2.65597C12.5631 2.37023 12.9569 2.21596 13.3721 2.2271C13.7873 2.23823 14.19 2.41386 14.4915 2.71535L15.0142 3.23814C15.0874 2.98291 15.2263 2.75444 15.4175 2.57486C15.6087 2.39528 15.8458 2.27067 16.1057 2.21308C16.3657 2.1555 16.6397 2.1669 16.9013 2.24617C17.1629 2.32545 17.4032 2.46992 17.5989 2.66559Z" fill="#162A41"/>
        <path opacity="0.4" d="M3.1999 19.2002L4.79991 20.8002C4.61802 20.9169 4.3845 20.9541 4.14055 20.9053C3.89661 20.8565 3.65791 20.7249 3.46657 20.5335C3.27523 20.3422 3.14355 20.1035 3.09476 19.8595C3.04597 19.6156 3.08321 19.3821 3.1999 19.2002Z" fill="#162A41"/>
        <path opacity="0.4" d="M14.4001 8L8.53339 13.8667L10.1334 15.4667L16.0001 9.60001L14.4001 8Z" fill="#162A41"/>
        <path opacity="0.4" d="M20.6306 3.36953C20.8215 3.56011 20.9431 3.80792 20.9741 4.0695C21.0051 4.33107 20.9435 4.5897 20.8001 4.80002L19.2001 3.20001C19.4106 3.05725 19.6691 2.99602 19.9305 3.02699C20.1919 3.05797 20.4397 3.17919 20.6306 3.36953Z" fill="#162A41"/>
    </g>
    <defs>
        <clipPath id="clip0_5636_40006">
            <rect width="24" height="24" fill="white"/>
        </clipPath>
    </defs>
</svg>
